<?xml version="1.0" encoding="utf-8"?>
<!-- Svg Vector Icons : http://www.onlinewebfonts.com/icon -->
<!DOCTYPE svg PUBLIC "-//W3C//DTD SVG 1.1//EN" "http://www.w3.org/Graphics/SVG/1.1/DTD/svg11.dtd">
<svg version="1.1" xmlns="http://www.w3.org/2000/svg" xmlns:xlink="http://www.w3.org/1999/xlink" x="0px" y="0px" viewBox="0 0 256 256" enable-background="new 0 0 256 256" xml:space="preserve">
<metadata> Svg Vector Icons : http://www.onlinewebfonts.com/icon </metadata>
<g><g><path fill="#000000" d="M128,6.9C62.8,6.9,10,61.1,10,128c0,66.9,52.8,121.1,118,121.1c65.2,0,118-54.2,118-121.1C246,61.1,193.2,6.9,128,6.9z M162.4,233.4c-5.5,1.1-7.5-2.4-7.5-5.4c0-3.7,0.1-15.7,0.1-30.6c0-10.4-3.5-17.2-7.4-20.7c24.2-2.7,49.6-12.2,49.6-55c0-12.2-4.2-22.1-11.2-29.9c1.1-2.8,4.8-14.1-1.1-29.5c0,0-9.1-3-29.9,11.4c-8.7-2.5-18-3.7-27.2-3.8c-9.2,0-18.5,1.3-27.2,3.8C80,59.4,70.9,62.4,70.9,62.4c-5.9,15.4-2.2,26.7-1.1,29.5c-6.9,7.8-11.2,17.7-11.2,29.9c0,42.7,25.4,52.3,49.5,55.1c-3.1,2.8-5.9,7.7-6.9,14.9c-6.2,2.8-21.9,7.8-31.6-9.3c0,0-5.7-10.7-16.7-11.5c0,0-10.6-0.1-0.7,6.8c0,0,7.1,3.4,12.1,16.3c0,0,6.4,21.7,36.6,15c0,9.3,0.1,16.3,0.1,19c0,3-2,6.4-7.4,5.4c-43.2-14.7-74.3-56.5-74.3-105.7C19.3,66.1,68,16.2,128,16.2c60,0,108.7,49.9,108.7,111.4C236.7,176.9,205.6,218.6,162.4,233.4z"/></g></g>
</svg>